<svg xmlns="http://www.w3.org/2000/svg" aria-hidden="true" style="position:absolute;width:0;height:0;overflow:hidden">
  <defs>
    <symbol id="icon-humburger" viewBox="0 0 34 32">
      <path d="M1.19 6.774h30.952a1.19 1.19 0 0 0 1.19-1.19V2.608a1.19 1.19 0 0 0-1.19-1.19H1.19A1.19 1.19 0 0 0 0 2.608v2.976c0 .658.533 1.19 1.19 1.19zm0 11.905h30.952a1.19 1.19 0 0 0 1.19-1.19v-2.976a1.19 1.19 0 0 0-1.19-1.19H1.19A1.19 1.19 0 0 0 0 14.513v2.976c0 .658.533 1.19 1.19 1.19zm0 11.904h30.952a1.19 1.19 0 0 0 1.19-1.19v-2.976a1.19 1.19 0 0 0-1.19-1.19H1.19A1.19 1.19 0 0 0 0 26.417v2.976c0 .658.533 1.19 1.19 1.19z"/>
    </symbol>
    <symbol id="icon-notif" viewBox="0 0 32 32">
      <path d="m24.242 16.186 1.32 2.262c.479.83.572 1.817.245 2.719a3.14 3.14 0 0 1-1.915 1.901c-1.261.433-2.558.77-3.866.986a4.27 4.27 0 0 1-.385.06c-.21.036-.421.06-.631.084-.257.036-.526.06-.794.084a22.968 22.968 0 0 1-4.427 0c-.315-.024-.619-.06-.923-.108a58.83 58.83 0 0 1-.514-.072c-.064-.012-.129-.021-.193-.03s-.129-.018-.193-.03a25.311 25.311 0 0 1-3.831-.974 3.113 3.113 0 0 1-1.962-1.889c-.315-.866-.199-1.865.304-2.743l1.32-2.262c.28-.493.537-1.444.537-2.021v-2.238c0-4.367 3.445-7.904 7.685-7.916 4.228 0 7.673 3.549 7.673 7.916v2.25c0 .578.257 1.528.549 2.021zm-8.257-1.708c.49 0 .888-.409.888-.914V9.835c0-.505-.397-.914-.888-.914s-.888.409-.888.914v3.729a.9.9 0 0 0 .888.914zM15.997 28c1.518 0 2.815-.998 3.305-2.394a68.22 68.22 0 0 0-.572.072 6.822 6.822 0 0 1-.486.051 9.552 9.552 0 0 0-.238.021c-.654.06-1.32.096-1.985.096-.677 0-1.355-.036-2.021-.096-.28-.024-.561-.06-.829-.096a6.847 6.847 0 0 0-.224-.028c-.082-.01-.163-.019-.243-.032.164.493.444.974.818 1.335A3.412 3.412 0 0 0 15.998 28z"/>
    </symbol>
    <symbol id="icon-person" viewBox="0 0 31 32">
      <path stroke-linejoin="round" stroke-width="2.56" d="M5.12 23.891a5.122 5.122 0 0 1 5.12-5.12h10.24a5.123 5.123 0 0 1 5.12 5.12 2.56 2.56 0 0 1-2.56 2.56H7.68a2.56 2.56 0 0 1-2.56-2.56z"/>
      <path stroke-width="2.56" d="M15.36 13.651a3.84 3.84 0 1 0 0-7.68 3.84 3.84 0 0 0 0 7.68z"/>
    </symbol>
    <symbol id="icon-heart" viewBox="0 0 32 32">
      <path d="M29.193 5.265c-3.629-3.596-9.432-3.671-13.191-.288-3.76-3.383-9.561-3.308-13.192.288a9.42 9.42 0 0 0 0 13.415l11.053 10.941a3.042 3.042 0 0 0 4.278 0L29.194 18.68a9.418 9.418 0 0 0-.001-13.415zm-1.425 12.003L16.715 28.209a1.012 1.012 0 0 1-1.425 0L4.237 17.268a7.443 7.443 0 0 1 0-10.591c2.844-2.815 7.416-2.914 10.409-.222l1.356 1.22 1.355-1.22c2.994-2.692 7.566-2.594 10.41.222a7.444 7.444 0 0 1 .001 10.591zM9.253 7.501a.5.5 0 1 1 0 1h-.001a3.25 3.25 0 0 0-3.249 3.249v.001a.5.5 0 0 1-1 0 4.25 4.25 0 0 1 4.246-4.249l.004-.001z"/>
    </symbol>
    <symbol id="icon-arrow-up" viewBox="0 0 32 32">
      <path d="M16 1l-15 15h9v16h12v-16h9z"></path>
    </symbol>
  </defs>
</svg>
